<svg width="73" height="22" viewBox="0 0 73 22" fill="none" xmlns="http://www.w3.org/2000/svg">
<path d="M12.1679 0C11.6597 0 11.2767 0.147311 11.0262 0.449299C10.7758 0.751286 10.518 1.25951 10.2602 1.9887L6.95308 10.9894L3.88165 2.36434C3.59439 1.50994 3.32923 0.905963 3.09353 0.545051C2.85783 0.184139 2.42327 0 1.7972 0C1.46575 0 1.17112 0.0810211 0.891232 0.243063C0.611341 0.405105 0.39774 0.611341 0.235698 0.869135C0.0810211 1.12693 0 1.38472 0 1.64252C0 1.81193 0.0294622 2.0108 0.0883866 2.23913C0.147311 2.46746 0.220967 2.69579 0.309353 2.91676C0.39774 3.13773 0.486127 3.35869 0.567148 3.58702L4.18363 12.5288C4.54455 13.3906 4.80234 13.9651 4.95702 14.2597C5.11169 14.5543 5.34739 14.8195 5.66411 15.0699C5.98083 15.3204 6.4154 15.4382 6.95308 15.4382C7.37292 15.4382 7.72647 15.3572 8.01372 15.2025C8.30098 15.0478 8.55141 14.8269 8.75028 14.5396C8.94915 14.2597 9.13329 13.9135 9.29533 13.5158C9.45737 13.1181 9.58995 12.7866 9.69307 12.5288L13.339 3.49127C13.4421 3.24084 13.5305 3.01988 13.6115 2.82101C13.6926 2.62214 13.7589 2.4159 13.8178 2.19493C13.8767 1.97397 13.9062 1.7751 13.9062 1.61306C13.9062 1.18585 13.7368 0.810211 13.3979 0.486127C13.0591 0.162042 12.6467 0 12.1679 0Z" fill="white"/>
<path d="M26.4939 0.92806C25.5143 0.324084 24.4389 0.0220967 23.2678 0.0220967C22.2955 0.0220967 21.4264 0.228332 20.653 0.640803C19.887 1.05327 19.1431 1.70144 18.4286 2.57794V2.12864C18.4286 1.44365 18.2592 0.913329 17.9204 0.552417C17.5816 0.184139 17.1396 0 16.602 0C16.0569 0 15.6223 0.176773 15.3056 0.537685C14.9889 0.891232 14.8342 1.43628 14.8342 2.15811V18.5391C14.8342 19.364 14.9521 19.9901 15.1804 20.4247C15.4087 20.8592 15.8875 21.0728 16.602 21.0728C17.8173 21.0728 18.4213 20.2405 18.4213 18.5686V12.8676C19.0915 13.7147 19.7912 14.3481 20.5278 14.7827C21.2644 15.2172 22.1777 15.4382 23.2604 15.4382C24.159 15.4382 24.9987 15.2614 25.7868 14.9005C26.5676 14.547 27.2526 14.0314 27.8271 13.3685C28.4016 12.7056 28.8509 11.888 29.1823 10.9084C29.5138 9.92877 29.6758 8.86076 29.6758 7.68964C29.6758 6.10604 29.3886 4.72869 28.8214 3.57229C28.2543 2.4159 27.4735 1.53204 26.4939 0.92806ZM25.3817 10.3044C25.0576 11.0336 24.623 11.586 24.0854 11.9543C23.5477 12.3226 22.9658 12.5067 22.3324 12.5067C21.2717 12.5067 20.3879 12.0869 19.6734 11.2472C18.9589 10.4075 18.6054 9.2364 18.6054 7.7191C18.6054 6.11341 18.9663 4.89809 19.6808 4.07315C20.4026 3.24821 21.2791 2.83574 22.3324 2.83574C22.9879 2.83574 23.5919 3.02724 24.1296 3.41025C24.6746 3.79326 25.0944 4.34568 25.4038 5.0675C25.7132 5.78933 25.8605 6.64373 25.8605 7.64544C25.8678 8.68399 25.7058 9.57522 25.3817 10.3044Z" fill="white"/>
<path d="M32.8872 0C32.3274 0 31.8781 0.191504 31.5319 0.567148C31.1857 0.950156 31.009 1.50994 31.009 2.26122V13.1254C31.009 13.8693 31.1857 14.4365 31.5319 14.8342C31.8781 15.232 32.3348 15.4308 32.8872 15.4308C33.4396 15.4308 33.9036 15.2393 34.2645 14.849C34.6255 14.4586 34.8096 13.8841 34.8096 13.1254V2.15811C34.8096 1.48048 34.6255 0.950156 34.2645 0.574513C33.9036 0.191504 33.447 0 32.8872 0Z" fill="white"/>
<path d="M49.8427 2.50429C49.4523 1.70881 48.8631 1.0901 48.075 0.655534C47.2869 0.220967 46.3956 0 45.3939 0C44.3628 0 43.4568 0.206235 42.6613 0.618706C41.8658 1.03118 41.1366 1.67935 40.4737 2.55585V2.09918C40.4737 1.64252 40.3927 1.25951 40.2307 0.942791C40.0686 0.626072 39.855 0.390374 39.5825 0.235698C39.31 0.0810211 39.008 0 38.6765 0C38.1315 0 37.6969 0.176773 37.3802 0.537685C37.0635 0.891232 36.9088 1.43628 36.9088 2.15811V13.1328C36.9088 13.8767 37.0856 14.4438 37.4391 14.8416C37.7927 15.2393 38.242 15.4382 38.787 15.4382C39.3542 15.4382 39.8108 15.2467 40.1718 14.8637C40.5253 14.4807 40.7094 13.8988 40.7094 13.1328V8.37463C40.7094 6.82787 40.8052 5.76723 40.9893 5.20745C41.2471 4.49299 41.6522 3.94057 42.212 3.53547C42.7718 3.13036 43.3831 2.93149 44.0608 2.93149C45.0993 2.93149 45.7917 3.26294 46.1379 3.92584C46.484 4.58874 46.6608 5.54626 46.6608 6.79841V13.1254C46.6608 13.8693 46.8376 14.4365 47.1911 14.8342C47.5447 15.232 48.0013 15.4308 48.5685 15.4308C49.1283 15.4308 49.5776 15.2393 49.9237 14.849C50.2699 14.4586 50.4467 13.8841 50.4467 13.1254V6.06185C50.4467 5.22954 50.4099 4.54455 50.3362 4.00686C50.2552 3.46918 50.0932 2.96832 49.8427 2.50429Z" fill="white"/>
<path d="M64.6549 0C64.1466 0 63.7268 0.184139 63.4027 0.545051C63.0786 0.905963 62.9166 1.41419 62.9166 2.07709V2.59267C62.239 1.70881 61.5098 1.06801 60.7217 0.655534C59.9335 0.243063 59.0055 0.0368278 57.9301 0.0368278C57.0315 0.0368278 56.2066 0.19887 55.4553 0.515589C54.704 0.832308 54.0411 1.31107 53.4666 1.94451C52.8921 2.57794 52.4501 3.35133 52.1408 4.26466C51.8314 5.18535 51.6768 6.20916 51.6768 7.35082C51.6768 8.88286 51.9345 10.2308 52.4428 11.3945C52.951 12.5656 53.6802 13.4716 54.6303 14.1198C55.5805 14.7679 56.6927 15.092 57.9596 15.092C59.0202 15.092 59.9262 14.8784 60.6922 14.4512C61.4582 14.024 62.1285 13.4053 62.7177 12.5877C62.6956 13.8325 62.6735 14.7311 62.6367 15.2909C62.5999 15.8507 62.4747 16.381 62.2537 16.8671C62.0327 17.3532 61.6571 17.7436 61.112 18.0161C60.567 18.2887 59.8083 18.4286 58.8213 18.4286C58.3426 18.4286 57.9154 18.3844 57.5397 18.296C57.1641 18.2076 56.8547 18.0751 56.5896 17.8909C56.3244 17.7068 56.0814 17.4932 55.8678 17.2354C55.6468 16.9776 55.4406 16.7272 55.2343 16.4767C54.8145 15.9833 54.3284 15.7402 53.7759 15.7402C53.334 15.7402 52.951 15.8875 52.6343 16.1748C52.3176 16.462 52.1629 16.845 52.1629 17.309C52.1629 17.9204 52.4428 18.517 52.9952 19.0989C53.555 19.6808 54.3431 20.1522 55.3743 20.5204C56.4054 20.8887 57.5692 21.0728 58.8803 21.0728C60.3092 21.0728 61.5024 20.9255 62.4599 20.6456C63.4174 20.3584 64.1982 19.9165 64.7874 19.3272C65.384 18.7306 65.8113 17.9793 66.0838 17.0734C66.3489 16.1674 66.4889 15.0773 66.4889 13.8178V2.78418C66.4889 1.88558 66.371 1.19322 66.128 0.721824C65.8775 0.235698 65.384 0 64.6549 0ZM62.2463 10.2308C61.8928 10.9158 61.4361 11.424 60.8763 11.7628C60.3166 12.1016 59.7199 12.271 59.0865 12.271C58.0185 12.271 57.1494 11.8806 56.4791 11.0925C55.8088 10.3044 55.47 9.14065 55.47 7.60125C55.47 6.08395 55.7941 4.90546 56.4496 4.08052C57.1052 3.25557 57.9743 2.8431 59.057 2.8431C60.1692 2.8431 61.0678 3.27031 61.7455 4.13944C62.4305 5.00121 62.7693 6.20916 62.7693 7.75593C62.7766 8.72081 62.5999 9.54576 62.2463 10.2308Z" fill="white"/>
<path d="M71.0408 20.417C72.1228 20.417 73 19.5398 73 18.4578C73 17.3757 72.1228 16.4985 71.0408 16.4985C69.9587 16.4985 69.0815 17.3757 69.0815 18.4578C69.0815 19.5398 69.9587 20.417 71.0408 20.417Z" fill="#FFB800"/>
</svg>
