<svg width="36" height="36" viewBox="0 0 36 36" fill="none" xmlns="http://www.w3.org/2000/svg">
<rect width="36" height="36" rx="18" fill="#27282D" fill-opacity="0.2"/>
<path d="M11.7402 17.9492C11.7402 18.2812 11.8672 18.5645 12.1309 18.8184L19.748 26.2695C19.9531 26.4844 20.2266 26.5918 20.5391 26.5918C21.1738 26.5918 21.6719 26.1035 21.6719 25.459C21.6719 25.1465 21.5449 24.8633 21.3301 24.6484L14.4648 17.9492L21.3301 11.25C21.5449 11.0254 21.6719 10.7422 21.6719 10.4297C21.6719 9.79492 21.1738 9.30664 20.5391 9.30664C20.2266 9.30664 19.9531 9.41406 19.748 9.62891L12.1309 17.0801C11.8672 17.334 11.75 17.6172 11.7402 17.9492Z" fill="white"/>
</svg>
