<svg width="40" height="40" viewBox="0 0 40 40" fill="none" xmlns="http://www.w3.org/2000/svg">
<rect width="40" height="40" rx="20" fill="#4A72FF"/>
<path opacity="0.8" d="M13.2881 23.8187C11.8615 22.392 11.1482 21.6787 10.8827 20.7532C10.6173 19.8277 10.8441 18.8448 11.2978 16.8788L11.5594 15.7451C11.9411 14.0912 12.132 13.2642 12.6982 12.6979C13.2645 12.1317 14.0915 11.9408 15.7454 11.5591L16.8791 11.2975C18.8451 10.8438 19.828 10.617 20.7535 10.8824C21.679 11.1479 22.3923 11.8612 23.819 13.2878L25.5079 14.9767L25.5079 14.9767C27.99 17.4589 29.2311 18.6999 29.2311 20.2421C29.2311 21.7843 27.99 23.0254 25.5079 25.5075L25.5079 25.5076L25.5078 25.5076C23.0257 27.9897 21.7846 29.2308 20.2424 29.2308C18.7002 29.2308 17.4592 27.9897 14.977 25.5076L14.977 25.5076L13.2881 23.8187Z" fill="url(#paint0_linear_25657_317115)"/>
<path d="M18.2678 15.6351C18.9948 16.3621 18.9948 17.5408 18.2678 18.2678C17.5408 18.9948 16.3621 18.9948 15.6351 18.2678C14.9081 17.5408 14.9081 16.3621 15.6351 15.6351C16.3621 14.9081 17.5408 14.9081 18.2678 15.6351Z" fill="white"/>
<path d="M26.5088 20.0475L20.0666 26.4899C19.7962 26.7602 19.3579 26.7603 19.0875 26.4899C18.8172 26.2195 18.8172 25.7812 19.0875 25.5108L25.5297 19.0684C25.8 18.7981 26.2384 18.7981 26.5087 19.0684C26.7791 19.3388 26.7791 19.7771 26.5088 20.0475Z" fill="white"/>
<defs>
<linearGradient id="paint0_linear_25657_317115" x1="20.0003" y1="10.7692" x2="20.0003" y2="29.2308" gradientUnits="userSpaceOnUse">
<stop offset="0.0520833" stop-color="white"/>
<stop offset="1" stop-color="white" stop-opacity="0.4"/>
</linearGradient>
</defs>
</svg>
