<svg width="40" height="40" viewBox="0 0 40 40" fill="none" xmlns="http://www.w3.org/2000/svg">
<rect width="40" height="40" rx="20" fill="#4A72FF"/>
<path d="M24.6152 17.6925L25.2229 17.3886C27.0192 16.4905 27.9173 16.0415 28.5739 16.4473C29.2306 16.8532 29.2306 17.8573 29.2306 19.8655V20.1349C29.2306 22.1431 29.2306 23.1472 28.5739 23.553C27.9173 23.9589 27.0192 23.5098 25.223 22.6117L24.6152 22.3079V17.6925Z" fill="white"/>
<path opacity="0.8" fill-rule="evenodd" clip-rule="evenodd" d="M11.6076 13.9653C10.7695 14.9865 10.7695 16.5038 10.7695 19.5384V20.4615C10.7695 23.4961 10.7695 25.0134 11.6076 26.0347C11.7611 26.2216 11.9325 26.393 12.1195 26.5465C13.1407 27.3846 14.658 27.3846 17.6926 27.3846C20.7272 27.3846 22.2445 27.3846 23.2658 26.5465C23.4527 26.393 23.6241 26.2216 23.7776 26.0347C24.6157 25.0134 24.6157 23.4961 24.6157 20.4615V19.5384C24.6157 16.5038 24.6157 14.9865 23.7776 13.9653C23.6241 13.7783 23.4527 13.6069 23.2658 13.4535C22.2445 12.6154 20.7272 12.6154 17.6926 12.6154C14.658 12.6154 13.1407 12.6154 12.1195 13.4535C11.9325 13.6069 11.7611 13.7783 11.6076 13.9653Z" fill="url(#paint0_linear_25657_317108)"/>
<path d="M21.8464 16.7693C21.8464 17.534 21.2265 18.1539 20.4618 18.1539C19.6971 18.1539 19.0771 17.534 19.0771 16.7693C19.0771 16.0046 19.6971 15.3846 20.4618 15.3846C21.2265 15.3846 21.8464 16.0046 21.8464 16.7693Z" fill="white"/>
<defs>
<linearGradient id="paint0_linear_25657_317108" x1="17.6926" y1="12.6154" x2="17.6926" y2="27.3846" gradientUnits="userSpaceOnUse">
<stop offset="0.0520833" stop-color="white"/>
<stop offset="1" stop-color="white" stop-opacity="0.4"/>
</linearGradient>
</defs>
</svg>
