<svg width="40" height="40" viewBox="0 0 40 40" fill="none" xmlns="http://www.w3.org/2000/svg">
<rect width="40" height="40" rx="20" fill="#4A72FF"/>
<path opacity="0.8" d="M28.3078 23.6907V18.1522C28.3078 15.5414 28.3078 14.2359 27.4967 13.4248C26.7874 12.7156 25.7001 12.6265 23.6924 12.6154H16.3078C14.3001 12.6265 13.2127 12.7156 12.5035 13.4248C11.6924 14.2359 11.6924 15.5414 11.6924 18.1522V23.6907C11.6924 26.3015 11.6924 27.607 12.5035 28.418C13.3146 29.2291 14.62 29.2291 17.2308 29.2291H22.7693C25.3802 29.2291 26.6856 29.2291 27.4967 28.418C28.3078 27.607 28.3078 26.3015 28.3078 23.6907Z" fill="url(#paint0_linear_25657_317101)"/>
<path d="M16.3076 12.1538C16.3076 11.3891 16.9275 10.7692 17.6922 10.7692H22.3076C23.0723 10.7692 23.6922 11.3891 23.6922 12.1538V13.0769C23.6922 13.8416 23.0723 14.4615 22.3076 14.4615H17.6922C16.9275 14.4615 16.3076 13.8416 16.3076 13.0769V12.1538Z" fill="white"/>
<path fill-rule="evenodd" clip-rule="evenodd" d="M23.275 18.6046C23.5359 18.8841 23.5208 19.3222 23.2412 19.5831L19.2852 23.2754C19.0192 23.5236 18.6064 23.5236 18.3404 23.2754L16.758 21.7985C16.4785 21.5376 16.4634 21.0995 16.7243 20.82C16.9852 20.5404 17.4233 20.5253 17.7028 20.7862L18.8128 21.8223L22.2965 18.5708C22.576 18.31 23.0141 18.3251 23.275 18.6046Z" fill="white"/>
<defs>
<linearGradient id="paint0_linear_25657_317101" x1="20.0001" y1="12.6154" x2="20.0001" y2="29.2291" gradientUnits="userSpaceOnUse">
<stop offset="0.0520833" stop-color="white"/>
<stop offset="1" stop-color="white" stop-opacity="0.4"/>
</linearGradient>
</defs>
</svg>
